<svg clip-rule="evenodd" fill-rule="evenodd" stroke-linejoin="round" stroke-miterlimit="2" viewBox="0 0 560 400" xmlns="http://www.w3.org/2000/svg"><g transform="matrix(2.39066 0 0 2.39066 100 151.345)"><path d="m4.298 34.102c.612 0 .782-.306 1.02-1.054l1.938-5.712h8.704l1.972 5.712c.238.748.476 1.054 1.088 1.054h.338c.806-.002 2.024-.018 2.348-.136.272-.136.408-.374.408-.646 0-.34-.102-.68-.238-1.054l-6.834-19.958c-.578-1.7-.918-2.448-2.754-2.448h-.85c-2.006 0-2.482.816-3.06 2.516l-6.97 19.958c-.136.34-.238.714-.238 1.02 0 .238.068.51.408.612.374.102 2.142.136 2.72.136zm10.744-10.132h-6.8c2.108-6.392 2.822-8.5 3.434-10.642.646 2.142 1.258 4.182 3.366 10.642zm15.266 10.2c.612 0 .884-.17.986-.646.068-.306.136-1.02.136-1.53 0-.442-.204-.714-.646-.782-.986-.17-1.666-.476-1.938-.952-.238-.442-.34-1.02-.34-2.04v-18.768c0-.578-.136-.884-.748-.884h-2.21c-.612 0-.816.34-.816.884v19.244c0 1.7.204 2.822.646 3.536.748 1.19 2.04 1.938 4.93 1.938zm6.936 7.786c.612 0 .952-.204.952-.884v-7.174c.748.374 2.21.544 3.264.544 5.576 0 8.262-1.768 8.262-9.282 0-6.664-2.176-8.602-7.14-8.602-2.482 0-5.508.544-6.868 1.156-.51.238-.952.544-1.122.986-.136.34-.17.884-.17 1.36v21.012c0 .714.238.884.782.884zm3.91-10.778c-.884 0-1.938-.136-2.448-.374-.374-.136-.51-.374-.51-1.088v-7.99c0-.374 0-.68.102-.884.068-.204.272-.374.544-.51.85-.374 2.21-.578 3.332-.578 3.026 0 3.74 1.598 3.74 5.44 0 4.658-.918 5.984-4.76 5.984zm17.918 3.264c2.346 0 5.27-.442 6.596-.986.544-.204.85-.476 1.088-.782.306-.374.374-.918.374-1.53v-8.806c0-2.312-.272-3.638-1.156-4.488-.952-.952-2.482-1.326-5.406-1.326-1.768 0-3.978.272-5.712.782-.408.136-.68.374-.68.884 0 .306.136 1.156.272 1.666.102.34.306.544.646.544.238 0 .918-.136 1.36-.204 1.19-.238 2.482-.374 3.57-.374 2.244 0 2.89.442 3.162 1.156.17.442.204 1.19.204 1.836v1.122c-.884-.102-2.244-.136-3.298-.136-2.244 0-4.284.34-5.372 1.02-1.326.85-1.904 2.108-1.904 4.148 0 2.924 1.054 5.474 6.256 5.474zm.476-2.958c-2.55 0-3.128-1.054-3.128-2.618 0-.952.238-1.462.748-1.768.612-.408 1.666-.578 3.366-.578.952 0 2.142.068 2.856.136v2.652c0 .442-.034.85-.136 1.156-.068.238-.272.442-.578.578-.612.238-1.666.442-3.128.442zm19.142 2.958c1.632 0 3.434-.17 4.93-.714.408-.136.578-.374.578-.816 0-.34-.204-1.156-.34-1.666-.102-.306-.306-.476-.578-.476s-.714.102-.986.17c-.986.204-1.904.306-3.196.306-3.298 0-4.114-1.938-4.114-5.78 0-3.468.612-5.678 4.386-5.678 1.054 0 1.904.102 2.584.238.306.034.748.136 1.02.136.306 0 .51-.17.612-.51.136-.51.34-1.598.34-1.938s-.17-.612-.578-.748c-1.054-.306-2.516-.442-4.012-.442-6.018 0-8.16 2.924-8.16 9.248 0 6.63 2.72 8.67 7.514 8.67zm13.838 0c2.346 0 5.27-.442 6.596-.986.544-.204.85-.476 1.088-.782.306-.374.374-.918.374-1.53v-8.806c0-2.312-.272-3.638-1.156-4.488-.952-.952-2.482-1.326-5.406-1.326-1.768 0-3.978.272-5.712.782-.408.136-.68.374-.68.884 0 .306.136 1.156.272 1.666.102.34.306.544.646.544.238 0 .918-.136 1.36-.204 1.19-.238 2.482-.374 3.57-.374 2.244 0 2.89.442 3.162 1.156.17.442.204 1.19.204 1.836v1.122c-.884-.102-2.244-.136-3.298-.136-2.244 0-4.284.34-5.372 1.02-1.326.85-1.904 2.108-1.904 4.148 0 2.924 1.054 5.474 6.256 5.474zm.476-2.958c-2.55 0-3.128-1.054-3.128-2.618 0-.952.238-1.462.748-1.768.612-.408 1.666-.578 3.366-.578.952 0 2.142.068 2.856.136v2.652c0 .442-.034.85-.136 1.156-.068.238-.272.442-.578.578-.612.238-1.666.442-3.128.442z" fill="#373737" fill-rule="nonzero" transform="translate(50 -2)"/><circle cx="20" cy="20" fill="#fcd700" r="20"/><path d="m20.477 6.056c.9.3 1.479.642 1.736 1.026.093.139.176.288.251.441.561 1.15.615 2.558.615 2.558 1.402.916 2.95 2.393 3.324 5.436 0 1.969.639 25.187.639 25.187h-11.201l-.005-21.371c-5.003.419-4.85-4.286-4.85-4.286 1.225-.957 2.259-2.089 3.102-3.396 1.188-1.843 4.402-2.457 4.402-2.457l-.766-2.354c1.634-.366 2.753 2.354 2.753 2.354z" fill="#fff" fill-rule="nonzero"/><path d="m20.493 6.056c.552 0 1 .726 1 1.62s-.448 1.62-1 1.62-1-.726-1-1.62.448-1.62 1-1.62zm-9.449 9.182c-.078 0-.058-.075-.058-.168 0-.092.052-.076.219-.198.075.003.063-.012.063.198 0 .211-.146.168-.224.168zm6.665-8.412c.184-.064.518.422.745 1.084.228.662.264 1.25.08 1.313s-.517-.422-.745-1.084-.264-1.25-.08-1.313zm-1.794 7.306s.084-.752.67-.752h1.295s-.167.752-.752.752z" fill="#fcd72b"/></g></svg>